<mxfile host="app.diagrams.net" agent="Mozilla/5.0 (Windows NT 10.0; Win64; x64) AppleWebKit/537.36 (KHTML, like Gecko) Chrome/139.0.0.0 Safari/537.36 Edg/139.0.0.0" version="28.2.0">
  <diagram name="第 1 页" id="fBebws8vC5tvTxWVOOk-">
    <mxGraphModel dx="1165" dy="773" grid="1" gridSize="10" guides="1" tooltips="1" connect="1" arrows="1" fold="1" page="1" pageScale="1" pageWidth="3300" pageHeight="4681" math="0" shadow="0">
      <root>
        <mxCell id="0" />
        <mxCell id="1" parent="0" />
        <mxCell id="FGLjD4K_lCxEl-S7o2h2-1" value="云桌面" style="image;sketch=0;aspect=fixed;html=1;points=[];align=center;fontSize=12;image=img/lib/mscae/VirtualMachineWindows.svg;" parent="1" vertex="1">
          <mxGeometry x="110" y="230" width="50" height="46" as="geometry" />
        </mxCell>
        <mxCell id="FGLjD4K_lCxEl-S7o2h2-2" value="&lt;p class=&quot;MsoNormal&quot;&gt;&lt;span style=&quot;font-family: 宋体; font-size: 11pt;&quot;&gt;172.29.9.22&lt;/span&gt;&lt;/p&gt;&lt;p class=&quot;MsoNormal&quot;&gt;&lt;span style=&quot;font-family: 宋体; font-size: 11pt;&quot;&gt;k8s-master&lt;/span&gt;&lt;/p&gt;" style="image;sketch=0;aspect=fixed;html=1;points=[];align=center;fontSize=12;image=img/lib/mscae/Non_Azure_Machine.svg;" parent="1" vertex="1">
          <mxGeometry x="300" y="250" width="31" height="50" as="geometry" />
        </mxCell>
        <mxCell id="FGLjD4K_lCxEl-S7o2h2-3" value="&lt;p class=&quot;MsoNormal&quot;&gt;&lt;span style=&quot;font-family: 宋体; font-size: 11pt;&quot;&gt;172.29.9.26&lt;/span&gt;&lt;/p&gt;&lt;p class=&quot;MsoNormal&quot;&gt;&lt;span style=&quot;font-family: 宋体; font-size: 14.6667px;&quot;&gt;k8s-node2&lt;/span&gt;&lt;span style=&quot;font-family: 宋体; font-size: 11pt;&quot;&gt;&lt;/span&gt;&lt;/p&gt;" style="image;sketch=0;aspect=fixed;html=1;points=[];align=center;fontSize=12;image=img/lib/mscae/Non_Azure_Machine.svg;" parent="1" vertex="1">
          <mxGeometry x="390" y="440" width="31" height="50" as="geometry" />
        </mxCell>
        <mxCell id="FGLjD4K_lCxEl-S7o2h2-4" value="&lt;p class=&quot;MsoNormal&quot;&gt;&lt;span style=&quot;font-family: 宋体; font-size: 11pt;&quot;&gt;172.29.9.25&lt;/span&gt;&lt;/p&gt;&lt;p class=&quot;MsoNormal&quot;&gt;&lt;span style=&quot;font-family: 宋体; font-size: 14.6667px;&quot;&gt;k8s-node1&lt;/span&gt;&lt;span style=&quot;font-family: 宋体; font-size: 11pt;&quot;&gt;&lt;/span&gt;&lt;/p&gt;" style="image;sketch=0;aspect=fixed;html=1;points=[];align=center;fontSize=12;image=img/lib/mscae/Non_Azure_Machine.svg;" parent="1" vertex="1">
          <mxGeometry x="269" y="440" width="31" height="50" as="geometry" />
        </mxCell>
        <mxCell id="FGLjD4K_lCxEl-S7o2h2-5" value="&lt;p class=&quot;MsoNormal&quot;&gt;&lt;span style=&quot;font-family: 宋体; font-size: 11pt;&quot;&gt;172.29.9.23&lt;/span&gt;&lt;/p&gt;&lt;p class=&quot;MsoNormal&quot;&gt;&lt;span style=&quot;font-family: 宋体; font-size: 14.6667px;&quot;&gt;k8s-master&lt;/span&gt;&lt;span style=&quot;font-family: 宋体; font-size: 11pt;&quot;&gt;&lt;/span&gt;&lt;/p&gt;" style="image;sketch=0;aspect=fixed;html=1;points=[];align=center;fontSize=12;image=img/lib/mscae/Non_Azure_Machine.svg;" parent="1" vertex="1">
          <mxGeometry x="400" y="250" width="31" height="50" as="geometry" />
        </mxCell>
        <mxCell id="FGLjD4K_lCxEl-S7o2h2-6" value="&lt;p class=&quot;MsoNormal&quot;&gt;&lt;span style=&quot;font-family: 宋体; font-size: 11pt;&quot;&gt;172.29.9.24&lt;/span&gt;&lt;/p&gt;&lt;p class=&quot;MsoNormal&quot;&gt;&lt;span style=&quot;font-family: 宋体; font-size: 14.6667px;&quot;&gt;k8s-master&lt;/span&gt;&lt;span style=&quot;font-family: 宋体; font-size: 11pt;&quot;&gt;&lt;/span&gt;&lt;/p&gt;" style="image;sketch=0;aspect=fixed;html=1;points=[];align=center;fontSize=12;image=img/lib/mscae/Non_Azure_Machine.svg;" parent="1" vertex="1">
          <mxGeometry x="600" y="250" width="31" height="50" as="geometry" />
        </mxCell>
      </root>
    </mxGraphModel>
  </diagram>
</mxfile>
